<?xml version="1.0" standalone="no"?>
<!DOCTYPE svg PUBLIC "-//W3C//DTD SVG 20010904//EN"
 "http://www.w3.org/TR/2001/REC-SVG-20010904/DTD/svg10.dtd">
<svg version="1.0" xmlns="http://www.w3.org/2000/svg"
 width="842.000000pt" height="842.000000pt" viewBox="0 0 842.000000 842.000000"
 preserveAspectRatio="xMidYMid meet">
<metadata>
Created by potrace 1.14, written by Peter Selinger 2001-2017
</metadata>
<g transform="translate(0.000000,842.000000) scale(0.100000,-0.100000)"
fill="#000000" stroke="none">
<path d="M3880 8276 c-738 -310 -3476 -1455 -3615 -1512 -54 -22 -80 -37 -79
-48 0 -9 1 -1106 2 -2439 l2 -2423 58 -24 c52 -21 829 -346 1017 -425 44 -18
98 -41 120 -50 22 -9 164 -69 315 -132 332 -139 555 -232 2099 -878 206 -86
383 -161 393 -166 12 -7 24 -7 31 -1 7 5 118 53 247 107 199 83 392 163 1125
470 44 19 168 70 275 115 107 45 265 111 350 147 85 35 193 80 240 100 47 19
114 48 150 63 36 15 144 60 240 100 180 75 347 145 435 182 28 12 250 105 495
207 l445 187 0 2438 0 2438 -90 38 c-49 20 -378 158 -730 305 -670 280 -1278
534 -1950 815 -220 92 -590 247 -822 344 -232 97 -425 176 -430 175 -4 0 -150
-60 -323 -133z m1005 -173 c336 -141 828 -347 1095 -458 267 -112 712 -298
990 -415 278 -116 663 -277 857 -358 194 -81 349 -150 345 -153 -4 -4 -164
-72 -357 -152 -358 -148 -2686 -1113 -3100 -1285 -561 -232 -505 -211 -539
-197 -127 53 -3215 1332 -3533 1464 -222 91 -403 169 -403 172 0 3 170 77 378
164 207 87 584 244 837 350 675 283 1305 546 1865 780 272 114 583 244 690
289 192 81 196 82 230 68 19 -8 310 -129 645 -269z m3308 -6234 c-5 -3 -226
-98 -493 -209 -267 -111 -665 -278 -885 -370 -220 -92 -634 -265 -920 -385
-286 -119 -700 -293 -920 -385 -693 -290 -741 -310 -748 -310 -4 0 -7 1090 -7
2423 l1 2422 1057 437 c581 240 1406 582 1832 759 426 176 845 350 930 384
l155 64 3 -2412 c1 -1326 -1 -2414 -5 -2418z m-7290 3904 c15 -5 17 -24 17
-224 l0 -219 -43 18 c-24 9 -102 42 -175 72 l-132 55 0 217 0 217 158 -66 c86
-36 165 -67 175 -70z m1005 -439 c356 -152 787 -336 957 -409 l310 -132 3
-213 c2 -199 1 -212 -15 -207 -10 2 -360 151 -778 330 -418 179 -843 361 -945
404 l-185 79 -3 212 c-1 117 0 212 3 212 3 0 297 -124 653 -276z m-45 -886
l447 -191 0 -214 0 -213 -32 13 c-18 8 -257 110 -530 227 l-498 213 0 213 0
213 83 -35 c45 -20 283 -121 530 -226z m-1108 -717 l160 -67 3 -218 c2 -173 0
-217 -10 -213 -7 2 -86 35 -175 73 l-163 68 0 213 c0 164 3 213 13 212 6 0 84
-31 172 -68z m651 -285 c82 -35 426 -182 764 -326 338 -144 703 -300 810 -345
l195 -84 3 -215 2 -215 -63 27 c-35 15 -469 200 -965 412 l-902 385 0 213 c0
116 2 212 4 212 1 0 70 -29 152 -64z m-640 -593 l154 -65 0 -214 c0 -118 -3
-214 -7 -214 -5 0 -82 31 -173 69 l-165 69 -3 217 -2 216 21 -6 c12 -4 90 -36
175 -72z m1404 -606 c393 -168 866 -370 1050 -448 l335 -144 3 -212 c1 -117 0
-213 -2 -213 -4 0 -428 180 -1753 747 l-553 236 0 213 0 213 103 -43 c56 -24
424 -181 817 -349z"/>
</g>
</svg>
